<svg width="492" height="498" viewBox="0 0 492 498" fill="none" xmlns="http://www.w3.org/2000/svg">
<path d="M408.215 3.60943C408.068 3.19584 407.721 2.88155 407.295 2.78429C406.865 2.68431 406.417 2.80732 406.104 3.12613C405.912 3.319 385.883 22.621 334.504 23.5858C283.863 24.5351 238.788 36.179 238.342 36.3016C237.976 36.3965 237.667 36.6539 237.504 36.9971C237.341 37.3402 237.344 37.7388 237.506 38.0821C237.912 38.9471 277.834 124.58 264.116 143.662C262.12 146.438 259.045 147.542 254.72 147.043C227.274 143.879 217.437 45.6738 217.344 44.6861C217.307 44.3005 217.101 43.9548 216.775 43.7383C216.451 43.5284 216.046 43.461 215.683 43.586C164.827 59.752 135.55 105.284 135.25 105.743C135.023 106.104 134.99 106.55 135.156 106.936C141.797 122.236 150.796 139.659 159.501 156.505C176.281 188.977 193.634 222.554 187.235 229.413C185.361 231.421 180.817 230.944 174.094 228.041C131.219 209.521 113.535 131.148 113.361 130.357C113.256 129.871 112.881 129.491 112.395 129.384C111.909 129.27 111.403 129.451 111.104 129.845C49.1037 209.449 70.6537 239.407 71.5163 240.519C75.9394 247.999 84.6029 258.624 93.7778 269.872C108.742 288.215 127.368 311.041 123.835 317.453C122.762 319.401 119.158 319.404 116.318 319.06C84.7749 315.234 52.247 261.526 51.9183 260.982C51.6491 260.529 51.1273 260.293 50.608 260.378C50.0883 260.48 49.6759 260.864 49.5669 261.377C38.9625 311.271 45.2639 354.333 68.2965 389.363C80.8742 408.495 97.0961 423.042 113.794 434.188C102.961 443.7 91.722 452.701 79.8752 460.876L87.2601 471.328C100.214 461.855 112.503 451.559 124.197 440.678C153.13 457.488 181.574 464.585 193.349 466.952C212.068 470.711 229.53 470.293 245.216 467.527C293.072 459.089 324.462 428.793 324.876 428.385C325.248 428.018 325.362 427.46 325.163 426.982C324.963 426.5 324.489 426.187 323.966 426.195C323.176 426.203 245.303 426.618 244.454 390.743C244.338 385.79 245.959 382.285 249.41 380.033C268.861 367.325 336.792 398.855 337.482 399.18C337.942 399.393 338.487 399.317 338.864 398.983C378.745 364.336 413.815 312.71 414.157 312.193C414.385 311.859 414.436 311.437 414.305 311.058C414.174 310.679 413.872 310.384 413.484 310.256C412.817 310.039 346.369 288.483 339.147 271.889C338.419 270.219 338.379 268.728 339.034 267.338C339.725 265.867 340.994 264.821 342.924 264.146C360.888 257.868 421.281 287.2 421.891 287.498C422.469 287.785 423.179 287.592 423.526 287.044C441.986 258.675 439.811 198.202 439.707 195.637C439.693 195.291 439.54 194.963 439.28 194.732C439.019 194.501 438.68 194.381 438.337 194.408C437.796 194.446 384.049 198.09 371.072 183.383C368.722 180.72 367.928 177.675 368.64 174.077C369.421 170.149 371.598 167.097 375.293 164.752C393.491 153.204 440.377 164.715 440.852 164.837C441.242 164.934 441.658 164.84 441.971 164.586C442.285 164.331 442.461 163.948 442.443 163.542C439.785 95.4611 408.526 4.51721 408.209 3.60355L408.215 3.60943Z" fill="#62A870" fill-opacity="0.7"/>
</svg>
