<svg width="300" height="300" viewBox="0 0 300 300" fill="none" xmlns="http://www.w3.org/2000/svg">
<g clip-path="url(#clip0_34_140)">
<path d="M192.236 84.3374C160.224 84.3374 131.449 98.3791 111.695 120.612C112.333 117.913 111.873 114.759 110.379 111.207C114.441 109.239 117.271 105.112 117.271 100.306V95.087C117.271 82.0433 121.246 69.608 128.451 60.0717C133.398 53.5266 136.013 45.7161 136.013 37.4875C136.013 27.3574 132.034 17.865 124.814 10.7619C117.596 3.65831 108.21 -0.238341 97.9021 -5.47687e-05C78.3176 0.317884 61.7971 16.4974 61.0758 36.0631C61.057 36.5505 61.1365 37.0232 61.1365 37.5106C54.8072 37.6737 46.0784 41.1689 44.2733 50.2367C40.868 51.5712 35.8064 54.3092 33.6559 59.2289C32.8317 61.1177 32.2231 63.8495 33.0618 67.2316C29.5812 69.8232 25.0629 74.7283 24.5108 82.9655C21.9715 86.3289 16.2131 94.9971 17.5352 102.931C14.7281 106.717 9.85005 114.471 11.4586 120.806C11.6699 121.631 11.9732 122.405 12.3768 123.126C8.09931 127.812 4.46788 135.557 7.64962 145.62C5.08727 149.233 0.743062 156.529 1.46435 163.636C1.68398 165.829 2.37423 167.849 3.49749 169.637C2.25503 171.503 1.07532 174.036 0.761536 177.172C0.316004 181.566 1.66515 185.949 4.7776 190.226C4.4492 193.548 4.46803 199.676 8.1097 204.161C9.7496 206.175 12.6968 208.532 17.7001 208.982C20.0051 210.542 24.5547 212.511 33.0302 212.852C35.0675 215.395 38.4037 217.583 42.8465 217.813V237.557C36.808 238.251 31.3338 241.123 28.326 243.001C22.0385 240.636 17.5833 241.989 14.8513 243.681C6.82563 248.647 5.59779 261.377 5.41572 265.74C0.13626 274.95 -1.17544 282.877 1.49589 289.324C4.18162 295.819 10.3794 298.914 13.6217 299.726C13.992 299.824 14.3705 299.866 14.7554 299.866H122.52C133.712 299.866 139.58 290.098 140.604 288.205C140.858 287.816 141.065 287.423 141.284 287.034C156.466 295.214 173.814 299.867 192.238 299.867C251.665 299.867 300.002 251.528 300.002 192.102C300.002 132.677 251.663 84.3378 192.238 84.3378L192.236 84.3374ZM42.4525 96.1826C43.6155 96.2537 47.1233 93.9424 49.5519 91.493C50.4324 90.6019 51.6373 90.0957 52.8881 90.0957H52.8965C54.1578 90.0957 55.3564 90.5978 56.237 91.4972C58.4102 93.7186 60.0229 94.3503 60.7341 94.2436C61.5729 94.1118 62.4012 92.8526 62.4723 92.7166C63.606 90.397 66.4214 89.4285 68.7411 90.5747C71.065 91.7084 72.0209 94.5197 70.883 96.8435C70.5964 97.425 67.9212 102.579 62.2297 103.497C59.1319 103.999 56.03 103.15 52.9344 100.977C50.2173 103.077 46.2576 105.466 42.3084 105.466C39.7691 105.466 37.5101 104.524 35.7676 102.749C33.9541 100.897 33.9834 97.9376 35.8324 96.1242C37.6731 94.3065 40.6434 94.34 42.4568 96.189L42.4525 96.1826ZM82.7658 168.14C81.6175 168.14 80.4754 168.018 79.35 167.717C77.6453 167.263 76.1226 166.462 74.8278 165.352C71.2761 167.09 65.8693 169.01 60.9638 167.713C57.6317 166.832 55.0173 164.634 53.4211 161.365C52.2832 159.041 53.2391 156.23 55.563 155.096C57.8911 153.939 60.7023 154.914 61.8318 157.238C62.3338 158.265 62.8672 158.522 63.3588 158.658C65.8897 159.342 70.841 157.136 73.3802 155.425C74.4992 154.669 75.9112 154.435 77.208 154.778C78.5153 155.13 79.6155 156.025 80.2117 157.238C80.7137 158.265 81.2512 158.527 81.7491 158.663C84.1629 159.286 88.3086 157.458 90.6888 156.086C89.3668 159.807 88.252 163.62 87.3442 167.513C85.8675 167.883 84.3321 168.144 82.7717 168.144L82.7658 168.14ZM105.12 103.074H91.9358C90.4047 103.074 89.158 101.828 89.158 100.296V98.3888H107.9V100.296C107.9 101.828 106.653 103.074 105.122 103.074H105.12ZM88.8338 89.0179C88.6832 87.4575 88.497 85.893 88.2293 84.3325H108.705C108.475 85.8825 108.293 87.4429 108.161 89.0179H88.8292H88.8338ZM55.3291 220.225H55.3479C57.0296 220.225 59.2552 219.832 61.598 218.337C63.2713 219.41 64.8736 219.901 66.2688 220.098V237.003C62.7129 238.329 59.6444 240.199 57.4377 241.81C55.8731 240.427 54.1119 239.392 52.2127 238.651V219.736C53.1874 220.012 54.2082 220.219 55.3293 220.223L55.3291 220.225ZM91.5197 243.146C87.2192 238.382 82.1719 235.771 76.4847 235.363C76.1981 235.344 75.9262 235.368 75.6417 235.363V217.414L75.6982 217.377C80.4547 218.506 84.2824 217.471 87.0877 215.605C89.192 225.022 92.5217 233.976 96.9185 242.293C94.8143 242.554 92.9401 242.87 91.522 243.146L91.5197 243.146ZM98.0541 9.37403H98.531C105.956 9.37403 112.939 12.2271 118.237 17.4415C123.652 22.7732 126.638 29.8913 126.638 37.4865C126.638 43.6568 124.68 49.5095 120.969 54.4145C116.415 60.4407 113.008 67.4394 110.801 74.9697H85.9313C83.6032 67.5818 80.0555 60.2859 75.2952 53.3226C71.8899 48.3465 70.2061 42.5001 70.432 36.422C70.9758 21.7467 83.3691 9.6166 98.0571 9.3826L98.0541 9.37403ZM192.234 290.493C137.979 290.493 93.8399 246.352 93.8399 192.1C93.8399 137.847 137.981 93.706 192.234 93.706C246.486 93.706 290.627 137.847 290.627 192.1C290.627 246.352 246.486 290.493 192.234 290.493Z" fill="#215745"/>
<path d="M270.517 144.626L244.4 118.51C242.643 116.753 239.533 116.753 237.776 118.51L185.537 170.752L153.517 138.075C153.003 137.546 152.361 137.147 151.658 136.912L125.528 128.207C123.842 127.629 121.987 128.085 120.734 129.336C119.483 130.587 119.042 132.447 119.605 134.13L128.31 160.26C128.536 160.936 128.911 161.548 129.406 162.059L161.487 194.796L120.19 236.093C118.358 237.925 118.358 240.887 120.19 242.717L146.307 268.834C147.221 269.748 148.42 270.206 149.62 270.206C150.819 270.206 152.02 269.746 152.934 268.834L193.898 227.87L228.561 263.241C231.776 266.456 236.043 268.217 240.58 268.217C245.115 268.217 249.392 266.451 252.603 263.241C255.811 260.032 257.583 255.753 257.583 251.218C257.583 246.683 255.811 242.399 252.63 239.224L217.939 203.816L270.514 151.245C271.395 150.364 271.886 149.178 271.886 147.932C271.886 146.685 271.395 145.495 270.514 144.618L270.517 144.626ZM141.499 143.403L134.799 150.103L131.449 140.052L141.499 143.396L141.499 143.403ZM184.455 224.061L179.047 218.654C177.215 216.822 174.253 216.822 172.423 218.654C170.591 220.487 170.591 223.448 172.423 225.279L177.83 230.686L167.035 241.481L161.632 236.078C159.8 234.246 156.838 234.246 155.008 236.078C153.175 237.91 153.175 240.872 155.008 242.702L160.411 248.105L149.62 258.896L130.13 239.406L168.044 201.492L187.338 221.179L184.455 224.061ZM254.141 154.375L248.738 148.967C246.906 147.135 243.944 147.135 242.114 148.967C240.282 150.8 240.282 153.762 242.114 155.592L247.517 160.999L236.722 171.794L231.319 166.391C229.486 164.559 226.525 164.559 224.694 166.391C222.862 168.224 222.862 171.185 224.694 173.016L230.097 178.419L219.302 189.214L213.899 183.811C212.067 181.979 209.105 181.979 207.275 183.811C205.443 185.643 205.443 188.605 207.275 190.435L212.678 195.838L211.389 197.127L192.1 177.439L241.09 128.443L260.58 147.934L254.146 154.368L254.141 154.375Z" fill="#215745"/>
<path d="M150.019 35.6091C151.495 35.6468 164.121 36.565 164.121 57.1663C164.121 59.7579 166.215 61.8517 168.806 61.8517C171.398 61.8517 173.492 59.7579 173.492 57.1663C173.492 36.5692 186.115 35.6466 187.594 35.6091H187.621C190.175 35.5673 192.231 33.4861 192.231 30.9237C192.231 28.3613 190.161 26.2613 187.592 26.2383C186.115 26.2006 173.49 25.2824 173.49 4.68541C173.49 2.09382 171.396 0 168.804 0C166.213 0 164.119 2.09382 164.119 4.68541C164.119 25.3098 151.454 26.2051 150.063 26.2383H149.987C147.433 26.2801 145.377 28.3613 145.377 30.9237C145.377 33.4861 147.448 35.5861 150.017 35.6091H150.019Z" fill="#215745"/>
</g>
<defs>
<clipPath id="clip0_34_140">
<rect width="300" height="300" fill="white"/>
</clipPath>
</defs>
</svg>
