<svg width="512" height="512" viewBox="0 0 512 512" fill="none" xmlns="http://www.w3.org/2000/svg">
<g clip-path="url(#clip0_147_6)">
<path d="M256.2 124.771C183.514 124.771 124.886 183.4 124.886 256.086C124.886 328.771 183.514 387.4 256.2 387.4C328.886 387.4 387.514 328.771 387.514 256.086C387.514 183.4 328.886 124.771 256.2 124.771ZM256.2 341.457C209.229 341.457 170.829 303.171 170.829 256.086C170.829 209 209.114 170.714 256.2 170.714C303.286 170.714 341.571 209 341.571 256.086C341.571 303.171 303.171 341.457 256.2 341.457ZM423.514 119.4C423.514 136.429 409.8 150.029 392.886 150.029C375.857 150.029 362.257 136.314 362.257 119.4C362.257 102.486 375.971 88.7714 392.886 88.7714C409.8 88.7714 423.514 102.486 423.514 119.4ZM510.486 150.486C508.543 109.457 499.171 73.1143 469.114 43.1714C439.171 13.2286 402.829 3.85714 361.8 1.8C319.514 -0.6 192.771 -0.6 150.486 1.8C109.571 3.74286 73.2286 13.1143 43.1714 43.0571C13.1143 73 3.85714 109.343 1.8 150.371C-0.6 192.657 -0.6 319.4 1.8 361.686C3.74286 402.714 13.1143 439.057 43.1714 469C73.2286 498.943 109.457 508.314 150.486 510.371C192.771 512.771 319.514 512.771 361.8 510.371C402.829 508.429 439.171 499.057 469.114 469C499.057 439.057 508.429 402.714 510.486 361.686C512.886 319.4 512.886 192.771 510.486 150.486ZM455.857 407.057C446.943 429.457 429.686 446.714 407.171 455.743C373.457 469.114 293.457 466.029 256.2 466.029C218.943 466.029 138.829 469 105.229 455.743C82.8286 446.829 65.5714 429.571 56.5429 407.057C43.1714 373.343 46.2571 293.343 46.2571 256.086C46.2571 218.829 43.2857 138.714 56.5429 105.114C65.4571 82.7143 82.7143 65.4571 105.229 56.4286C138.943 43.0571 218.943 46.1429 256.2 46.1429C293.457 46.1429 373.571 43.1714 407.171 56.4286C429.571 65.3429 446.829 82.6 455.857 105.114C469.229 138.829 466.143 218.829 466.143 256.086C466.143 293.343 469.229 373.457 455.857 407.057Z" fill="#E4EDE3"/>
</g>
<defs>
<clipPath id="clip0_147_6">
<rect width="512" height="512" fill="white"/>
</clipPath>
</defs>
</svg>
