<svg width="219" height="300" viewBox="0 0 219 300" fill="none" xmlns="http://www.w3.org/2000/svg">
<g clip-path="url(#clip0_34_90)">
<path d="M76.8574 147.64C73.1397 144.098 68.5207 141.817 64.2608 141.277C63.7211 141.217 63.1211 141.156 62.4007 141.156C60.2419 141.156 57.4832 141.636 55.5626 143.736C52.9846 146.497 53.2231 150.458 53.5845 152.559C54.3652 156.819 56.9432 161.321 60.6611 164.802C69.4772 173.145 81.6542 174.526 88.4319 174.587C88.1332 168.108 86.2735 156.464 76.8574 147.64Z" fill="#215745"/>
<path d="M138.395 174.412C135.335 171.53 131.858 170.209 129.157 170.209C127.538 170.209 126.218 170.689 125.379 171.53C123.16 173.871 124.119 179.752 128.979 184.375C134.198 189.356 141.334 190.617 146.074 190.916C145.712 186.417 144.033 179.752 138.395 174.412Z" fill="#215745"/>
<path d="M120.164 101.723C117.405 101.723 115.005 102.565 113.326 104.303C110.748 107.064 110.986 111.025 111.347 113.126C112.128 117.386 114.706 121.888 118.424 125.37C127.24 133.712 139.417 135.094 146.195 135.154C145.954 128.673 144.036 117.087 134.678 108.205C130.179 104.005 124.72 101.723 120.164 101.723Z" fill="#215745"/>
<path d="M217.148 2.26812C215.529 0.288633 212.77 -0.372075 210.37 0.527282L194.717 6.76973H23.7796L8.24613 0.527282C5.84633 -0.432332 3.08762 0.286125 1.408 2.26812C-0.27136 4.2476 -0.452057 7.12896 0.928555 9.29191L11.6648 26.4565C17.0618 35.1003 19.6423 45.1839 19.0421 55.1466H199.458C198.918 45.1234 201.496 35.0398 206.895 26.4565L217.632 9.34915C219.01 7.1285 218.829 4.30748 217.15 2.26748L217.148 2.26812Z" fill="#215745"/>
<path d="M200.71 67.1511H17.717C11.1199 122.311 11.1199 178.071 17.717 233.17H200.652C207.309 178.068 207.309 122.309 200.71 67.1511ZM100.185 181.132C99.8255 183.772 97.7245 185.875 95.0862 186.234C94.7875 186.294 92.3877 186.593 88.788 186.593C80.1506 186.593 64.4359 184.852 52.442 173.508C46.8041 168.164 43.0264 161.502 41.826 154.659C40.5056 147.277 42.3054 140.255 46.864 135.452C51.4226 130.652 58.3206 128.428 65.7557 129.33C72.6536 130.172 79.5496 133.591 85.1295 138.874C103.361 156.162 100.304 180.112 100.183 181.132L100.185 181.132ZM158.003 197.578C157.644 200.218 155.543 202.321 152.905 202.68C152.664 202.74 150.927 202.921 148.165 202.921C141.689 202.921 129.813 201.6 120.756 193.019C111.22 184.016 109.42 170.87 116.677 163.249C123.934 155.567 137.07 156.647 146.607 165.65C160.403 178.731 158.124 196.797 158.003 197.578ZM157.943 141.758C157.584 144.398 155.483 146.5 152.844 146.86C152.546 146.92 150.146 147.219 146.546 147.219C137.909 147.219 122.194 145.478 110.2 134.133C104.562 128.79 100.785 122.128 99.5842 115.285C98.2638 107.902 100.064 100.881 104.622 96.0779C113.799 86.3538 130.593 87.9165 142.888 99.4994C161.123 116.787 158.123 140.738 157.943 141.758Z" fill="#215745"/>
<path d="M0.867515 291.029C-0.513091 293.25 -0.332393 296.071 1.34696 298.053C2.54686 299.492 4.22622 300.213 5.9658 300.213C6.68624 300.213 7.46439 300.092 8.18483 299.794L23.7183 293.611H194.655L210.309 299.794C212.709 300.753 215.467 300.092 217.087 298.053C218.766 296.073 218.947 293.252 217.566 291.029L206.83 273.922C201.433 265.278 198.852 255.255 199.392 245.171H19.0407C19.6406 255.194 17.0626 265.278 11.6634 273.922L0.867515 291.029Z" fill="#215745"/>
</g>
<defs>
<clipPath id="clip0_34_90">
<rect width="218.33" height="300" fill="white"/>
</clipPath>
</defs>
</svg>
