<svg width="242" height="300" viewBox="0 0 242 300" fill="none" xmlns="http://www.w3.org/2000/svg">
<g clip-path="url(#clip0_26_5)">
<path d="M241.196 18.75C241.196 85.3125 201.342 140.332 149.711 148.828C146.366 117.539 135.296 89.2969 118.949 67.207C136.992 27.1289 171.475 0 211.047 0H226.121C234.459 0 241.196 8.37891 241.196 18.75ZM0 56.25C0 45.8789 6.73653 37.5 15.0748 37.5H30.1495C88.4228 37.5 135.673 96.2695 135.673 168.75V187.5V281.25C135.673 291.621 128.936 300 120.598 300C112.26 300 105.523 291.621 105.523 281.25V187.5C47.2499 187.5 0 128.73 0 56.25Z" fill="#215745"/>
</g>
<defs>
<clipPath id="clip0_26_5">
<rect width="241.196" height="300" fill="white"/>
</clipPath>
</defs>
</svg>
