<svg width="448" height="512" viewBox="0 0 448 512" fill="none" xmlns="http://www.w3.org/2000/svg">
<g clip-path="url(#clip0_147_8)">
<path d="M447.87 209.91C403.845 210.015 360.899 196.285 325.1 170.66V349.38C325.088 382.481 314.971 414.789 296.101 441.985C277.231 469.18 250.508 489.967 219.506 501.565C188.504 513.164 154.699 515.02 122.613 506.888C90.5265 498.755 61.6878 481.021 39.9528 456.055C18.2177 431.09 4.62244 400.085 0.984722 367.184C-2.65299 334.284 3.84029 301.057 19.5963 271.947C35.3524 242.836 59.6201 219.23 89.1547 204.284C118.689 189.338 152.083 183.765 184.87 188.31V278.2C169.867 273.481 153.755 273.623 138.838 278.606C123.92 283.59 110.958 293.159 101.803 305.949C92.6482 318.738 87.7688 334.093 87.8614 349.821C87.9541 365.549 93.0141 380.846 102.319 393.526C111.624 406.207 124.697 415.624 139.673 420.431C154.648 425.238 170.76 425.19 185.707 420.295C200.654 415.399 213.672 405.905 222.901 393.17C232.131 380.434 237.1 365.108 237.1 349.38V0H325.1C325.039 7.4314 325.662 14.8527 326.96 22.17C330.018 38.5048 336.376 54.0441 345.646 67.8373C354.915 81.6306 366.901 93.3879 380.87 102.39C400.744 115.531 424.045 122.535 447.87 122.53V209.91Z" fill="#E4EDE3"/>
</g>
<defs>
<clipPath id="clip0_147_8">
<rect width="448" height="512" fill="white"/>
</clipPath>
</defs>
</svg>
