<svg width="630" height="512" viewBox="0 0 630 512" fill="none" xmlns="http://www.w3.org/2000/svg">
<g clip-path="url(#clip0_147_10)">
<path d="M565.24 127.55C565.64 133.147 565.64 138.746 565.64 144.343C565.64 315.076 435.724 511.799 198.274 511.799C125.12 511.799 57.1639 490.607 0 453.823C10.3938 455.021 20.3864 455.422 31.1801 455.422C91.5407 455.422 147.106 435.03 191.478 400.244C134.714 399.044 87.1443 361.858 70.7544 310.678C78.75 311.877 86.7444 312.677 95.1398 312.677C106.732 312.677 118.326 311.077 129.118 308.279C69.9558 296.283 25.5827 244.304 25.5827 181.529V179.93C42.7711 189.526 62.7601 195.524 83.945 196.322C49.1671 173.131 26.3825 133.547 26.3825 88.7643C26.3825 64.7742 32.7772 42.7828 43.9708 23.5902C107.531 101.959 203.07 153.138 310.201 158.737C308.203 149.141 307.003 139.146 307.003 129.15C307.003 57.9766 364.567 0 436.121 0C473.297 0 506.876 15.5938 530.461 40.784C559.642 35.1865 587.624 24.3902 612.409 9.59631C602.814 39.5852 582.428 64.7754 555.645 80.768C581.629 77.9705 606.813 70.7717 629.998 60.7766C612.412 86.3655 590.424 109.156 565.24 127.55Z" fill="#E4EDE3"/>
</g>
<defs>
<clipPath id="clip0_147_10">
<rect width="630" height="512" fill="white"/>
</clipPath>
</defs>
</svg>
